<?xml version="1.0" encoding="utf-8"?>
<!-- Generator: Adobe Illustrator 24.3.0, SVG Export Plug-In . SVG Version: 6.00 Build 0)  -->
<svg version="1.1"
	 id="svg13" inkscape:version="0.92.1 r15371" sodipodi:docname="broadleaved.svg.2022_04_25_18_38_11.0.svg" xmlns:cc="http://creativecommons.org/ns#" xmlns:dc="http://purl.org/dc/elements/1.1/" xmlns:inkscape="http://www.inkscape.org/namespaces/inkscape" xmlns:rdf="http://www.w3.org/1999/02/22-rdf-syntax-ns#" xmlns:sodipodi="http://sodipodi.sourceforge.net/DTD/sodipodi-0.dtd" xmlns:svg="http://www.w3.org/2000/svg"
	 xmlns="http://www.w3.org/2000/svg" xmlns:xlink="http://www.w3.org/1999/xlink" x="0px" y="0px" viewBox="0 0 375 375"
	 style="enable-background:new 0 0 375 375;" xml:space="preserve">
<style type="text/css">
	.st0{fill:#78421E;stroke:#542100;stroke-width:4;stroke-miterlimit:110.7272;}
	.st1{fill:#542100;stroke:#542100;stroke-width:5.8594;stroke-miterlimit:110.7272;}
	.st2{fill:#007F00;stroke:#144F14;stroke-width:4;stroke-linecap:round;stroke-linejoin:round;stroke-miterlimit:110.7272;}
</style>
<g>
	<path class="st0" d="M167.1,365.4c0,0,6-108.6,15.6-138.8h15c1.1,0,2,0.8,2.2,1.8c2.2,10.8,12.9,67.5,12.9,137
		C212.8,365.4,193.5,381.1,167.1,365.4z"/>
	<path class="st1" d="M176.2,202.5c0,0-9.7,6.6,7.7,21.6h14.7c0,0,15.3-13.9,10.1-21.6l-17-6L176.2,202.5z"/>
	<path class="st2" d="M180.9,198.8c0,0-80.6,30.1-82,98.9c0,0-37.6-116.4,82-104.6C180.9,193.1,202.7,192.9,180.9,198.8z"/>
	<path class="st2" d="M181.8,190.3c0,0-78.3-35.7-127.6,12.2c0,0,55.1-109.2,131.6-16.2C185.7,186.3,199.7,199,181.8,190.3z"/>
	<path class="st2" d="M186,182.3c0,0-49.6-70.5-116.2-54.3c0,0,102.5-66.2,121.6,52.9C191.4,180.9,194.1,194.1,186,182.3z"/>
	<path class="st2" d="M202.7,198.5c0,0,80.6,30.1,82,98.9c0,0,37.6-116.4-82-104.6C202.7,192.9,177.8,192.1,202.7,198.5z"/>
	<path class="st2" d="M201.9,190.1c0,0,78.3-35.7,127.6,12.2c0,0-55.1-109.2-131.6-16.2C197.9,186.1,180.9,198.8,201.9,190.1z"/>
	<path class="st2" d="M197.7,182.1c0,0,49.6-70.5,116.2-54.3c0,0-102.5-66.2-121.6,52.9C192.2,180.6,188.7,194.5,197.7,182.1z"/>
</g>
</svg>
